<?xml version="1.0" standalone="no"?>
<!DOCTYPE svg PUBLIC "-//W3C//DTD SVG 20010904//EN"
 "http://www.w3.org/TR/2001/REC-SVG-20010904/DTD/svg10.dtd">
<svg version="1.0" xmlns="http://www.w3.org/2000/svg"
 width="368.000000pt" height="289.000000pt" viewBox="0 0 368.000000 289.000000"
 preserveAspectRatio="xMidYMid meet">

<g transform="translate(0.000000,289.000000) scale(0.100000,-0.100000)"
fill="#000000" stroke="none">
<path d="M1553 2556 c-53 -17 -133 -64 -133 -77 0 -6 -18 -29 -40 -51 -23 -22
-48 -57 -56 -79 -19 -46 -29 -43 -44 11 -6 24 -17 40 -25 40 -8 0 -32 15 -52
34 -37 33 -95 56 -142 56 -22 0 -19 -4 20 -29 60 -38 94 -77 119 -134 71 -160
-10 -345 -177 -402 -33 -11 -38 -17 -38 -44 0 -17 4 -31 9 -31 20 0 76 25 76
33 0 6 5 5 13 0 6 -6 28 -13 47 -16 19 -3 56 -13 83 -21 l47 -15 0 25 c0 14 3
24 8 22 4 -3 22 -10 40 -17 38 -15 41 -28 10 -40 -22 -8 -22 -9 10 -29 37 -22
77 -75 94 -123 7 -20 15 -28 25 -25 8 3 11 1 8 -4 -3 -6 1 -10 9 -10 24 0 21
57 -3 69 -11 7 -20 25 -23 47 l-4 37 28 -32 c15 -17 28 -38 28 -46 0 -8 10
-17 23 -20 17 -5 22 -13 21 -35 -3 -69 -1 -66 -41 -62 l-37 5 25 -31 c13 -17
32 -34 41 -37 10 -3 20 -21 24 -41 3 -19 12 -34 20 -34 8 0 14 -9 14 -19 0
-28 80 -91 80 -63 0 4 4 13 9 21 13 21 76 -14 102 -56 19 -30 23 -33 31 -19 5
9 14 13 20 10 6 -4 14 0 19 7 6 10 9 11 9 2 0 -21 18 -15 25 7 10 31 105 141
116 135 18 -12 8 5 -30 48 -71 83 -86 127 -86 252 1 136 17 178 107 271 l63
66 -1 86 c0 108 -28 176 -104 256 -72 76 -149 110 -260 113 -51 2 -102 -3
-127 -11z m67 -76 c0 -5 -4 -10 -10 -10 -5 0 -10 5 -10 10 0 6 5 10 10 10 6 0
10 -4 10 -10z m-83 -362 c-2 -18 -4 -6 -4 27 0 33 2 48 4 33 2 -15 2 -42 0
-60z m-32 22 c4 -6 -25 -10 -79 -10 -51 0 -86 4 -86 10 0 6 33 10 79 10 44 0
83 -4 86 -10z m-65 -200 c0 -5 -20 -10 -45 -10 -25 0 -45 5 -45 10 0 6 20 10
45 10 25 0 45 -4 45 -10z m96 -29 c-1 -16 -5 -33 -9 -38 -5 -4 -6 -1 -2 7 4
12 -4 15 -36 15 -25 0 -44 5 -46 13 -3 8 9 12 41 12 25 0 46 5 46 10 0 6 2 10
4 10 2 0 3 -13 2 -29z m213 -7 c2 -2 -28 -4 -68 -4 -40 0 -70 4 -67 9 5 8 125
3 135 -5z m-161 -20 c31 -9 10 -34 -28 -34 -23 0 -27 -4 -23 -20 3 -11 0 -20
-6 -20 -17 0 -13 37 6 60 19 22 19 22 51 14z m-168 -92 c0 -4 -9 -13 -19 -19
-15 -10 -20 -9 -25 2 -5 13 7 23 32 24 6 1 12 -2 12 -7z m120 -1 c0 -6 -4 -13
-10 -16 -5 -3 -10 1 -10 9 0 9 5 16 10 16 6 0 10 -4 10 -9z m198 -68 c36 -9 6
-23 -50 -23 -36 0 -48 -4 -48 -15 0 -10 -10 -15 -31 -15 -22 0 -32 -5 -36 -20
-8 -32 -23 -23 -20 13 2 30 5 32 45 35 28 2 42 8 42 18 0 15 54 19 98 7z
m-108 -313 c0 -5 -2 -10 -4 -10 -3 0 -8 5 -11 10 -3 6 -1 10 4 10 6 0 11 -4
11 -10z"/>
<path d="M2195 2241 c-40 -18 -105 -82 -105 -103 0 -6 9 -8 23 -4 12 4 47 11
79 17 98 19 224 -21 309 -98 l42 -38 -7 30 c-17 69 -86 147 -180 202 -31 18
-115 15 -161 -6z"/>
<path d="M2803 2195 c0 -14 5 -25 12 -25 7 0 13 11 13 25 0 14 -6 25 -13 25
-7 0 -12 -11 -12 -25z"/>
<path d="M980 2170 c0 -5 5 -10 10 -10 6 0 10 5 10 10 0 6 -4 10 -10 10 -5 0
-10 -4 -10 -10z"/>
<path d="M2690 2029 c-52 -22 -108 -95 -95 -126 3 -9 9 -44 14 -78 9 -62 43
-121 63 -109 5 3 16 0 24 -7 17 -14 114 -30 114 -18 0 6 45 22 45 16 0 -1 18
17 39 41 31 34 40 53 44 91 10 105 -65 191 -171 198 -29 1 -63 -2 -77 -8z"/>
<path d="M2048 1819 c-29 -16 -22 -49 12 -62 17 -6 30 -17 30 -24 0 -16 -22
-17 -37 -2 -6 6 -17 9 -23 7 -20 -6 18 -38 44 -38 28 0 50 24 42 45 -3 9 -19
21 -36 26 -43 16 -38 33 8 25 l37 -6 -24 20 c-26 23 -29 23 -53 9z"/>
<path d="M2130 1810 c0 -5 7 -10 15 -10 11 0 15 -12 15 -50 0 -38 4 -50 15
-50 11 0 15 12 15 50 0 38 4 50 15 50 8 0 15 5 15 10 0 6 -20 10 -45 10 -25 0
-45 -4 -45 -10z"/>
<path d="M2241 1801 c-16 -29 -13 -67 5 -86 44 -43 113 20 83 74 -19 34 -73
41 -88 12z m64 -41 c0 -28 -4 -35 -20 -35 -13 0 -21 8 -23 23 -5 34 5 54 25
50 13 -2 18 -13 18 -38z"/>
<path d="M2360 1783 c0 -21 -3 -48 -6 -60 -5 -17 -2 -23 9 -23 9 0 17 10 19
23 2 15 11 23 30 25 31 4 46 35 28 57 -7 8 -28 15 -46 15 -33 0 -34 -2 -34
-37z m60 3 c0 -15 -24 -28 -34 -19 -13 14 -5 33 14 33 11 0 20 -6 20 -14z"/>
<path d="M2643 1632 c-13 -2 -23 -7 -23 -12 0 -9 46 -7 56 2 9 9 -9 14 -33 10z"/>
<path d="M2511 1528 c-54 -59 -149 -118 -194 -118 -16 0 -18 -9 -16 -67 2
-118 -3 -113 102 -113 l90 0 38 39 c20 22 34 42 31 45 -3 3 0 6 6 6 16 0 32
66 32 135 0 61 -15 135 -28 135 -4 0 -31 -28 -61 -62z m-165 -235 c-10 -10
-19 5 -10 18 6 11 8 11 12 0 2 -7 1 -15 -2 -18z"/>
<path d="M2092 1396 c-16 -35 -105 -103 -162 -123 -49 -17 -58 -29 -61 -83 -1
-14 -5 -5 -8 20 -6 41 -7 43 -18 24 -9 -16 -9 -31 3 -71 14 -50 16 -51 60 -58
52 -7 126 -38 169 -70 17 -12 36 -20 43 -18 6 3 12 0 12 -7 0 -6 -4 -8 -10 -5
-17 10 -11 -10 8 -31 27 -28 54 -136 52 -207 -2 -84 -1 -89 10 -82 6 3 10 1
10 -5 0 -7 8 -28 17 -47 16 -35 17 -35 26 -12 8 23 7 315 -1 352 -4 17 -6 16
-28 -4 -23 -22 -24 -22 -24 -2 0 11 11 30 25 43 23 22 25 30 25 114 0 57 -4
86 -9 77 -18 -28 -41 -4 -41 43 0 54 16 68 31 29 14 -34 17 -26 21 59 l4 66
-56 7 c-30 3 -62 8 -71 11 -10 3 -20 -5 -27 -20z m22 -97 c3 -17 10 -28 15
-25 5 3 7 16 4 29 -3 12 -3 19 1 16 3 -3 9 -26 12 -50 l6 -43 -23 29 c-40 50
-52 75 -35 75 7 0 16 -14 20 -31z m-24 -184 c0 -8 -7 -15 -15 -15 -16 0 -20
12 -8 23 11 12 23 8 23 -8z"/>
<path d="M1566 1332 c-9 -20 -17 -56 -18 -80 -1 -39 -18 -74 -18 -38 0 9 -5
16 -10 16 -6 0 -10 -7 -8 -16 5 -25 -28 -42 -52 -26 -11 6 -29 12 -39 12 -18
0 -20 -9 -23 -119 l-3 -118 63 5 63 5 -3 -69 -3 -69 -32 -3 c-18 -2 -33 -5
-33 -7 0 -16 44 -116 53 -122 20 -13 34 -85 24 -122 -9 -38 -2 -81 14 -81 6 0
7 18 3 50 -4 28 -3 50 2 50 5 0 25 -13 44 -29 19 -15 51 -36 70 -46 l35 -18
-43 44 c-63 65 -85 118 -93 224 -4 55 -3 95 4 103 5 6 6 12 1 12 -4 0 -3 5 4
12 17 17 15 33 -3 18 -13 -11 -15 -8 -15 20 0 31 2 32 29 27 25 -5 33 -1 56
29 15 19 51 48 80 65 56 31 58 36 69 124 5 33 4 36 -4 15 -8 -20 -9 -17 -5 18
3 24 1 42 -5 42 -30 0 -120 45 -151 75 l-36 35 -17 -38z m-57 -261 c19 -12 5
-31 -23 -31 -29 0 -39 10 -25 27 13 15 28 16 48 4z"/>
<path d="M2706 1305 c-3 -8 -1 -25 4 -37 6 -16 9 -18 9 -6 1 9 7 18 13 20 9 3
8 9 -4 21 -14 14 -17 14 -22 2z"/>
<path d="M2670 1290 c0 -5 5 -10 10 -10 6 0 10 5 10 10 0 6 -4 10 -10 10 -5 0
-10 -4 -10 -10z"/>
<path d="M2309 1188 c0 -7 -3 -33 -5 -58 -3 -25 -1 -40 3 -34 5 6 35 26 67 45
83 48 83 59 2 59 -46 0 -66 -4 -67 -12z"/>
<path d="M2494 1191 c-21 -6 -86 -51 -148 -103 -18 -15 -36 -25 -40 -21 -8 8
-8 -104 0 -134 4 -13 11 -20 18 -17 6 3 4 0 -4 -8 -20 -18 -23 -378 -2 -378 6
0 12 -5 12 -11 0 -5 5 -7 10 -4 6 4 17 2 24 -4 34 -29 180 5 262 60 54 37 89
84 112 152 10 31 21 55 23 52 3 -2 5 35 4 83 -1 95 -25 165 -78 228 -51 61
-153 116 -193 105z"/>
<path d="M1339 1098 c-13 -17 -31 -38 -40 -47 -19 -19 -30 -69 -17 -77 4 -3 6
-10 3 -15 -4 -5 -1 -9 5 -9 7 0 10 -6 7 -12 -3 -9 5 -13 22 -13 48 0 52 9 50
111 -1 52 -3 94 -4 94 -1 0 -13 -14 -26 -32z"/>
<path d="M1250 994 c-11 -12 -10 -18 3 -31 14 -15 16 -13 15 15 -1 37 -1 37
-18 16z"/>
<path d="M1892 803 c5 -25 28 -28 28 -4 0 12 -6 21 -16 21 -9 0 -14 -7 -12
-17z"/>
<path d="M1957 775 c-22 -53 -16 -85 6 -35 l16 35 1 -32 c0 -18 5 -33 10 -33
6 0 10 25 10 55 0 69 -18 73 -43 10z"/>
<path d="M1377 768 c-10 -45 -8 -268 3 -268 6 0 10 51 10 145 0 80 -2 145 -4
145 -2 0 -6 -10 -9 -22z"/>
<path d="M2115 571 c-22 -9 -63 -51 -50 -51 14 0 75 41 75 51 0 5 -1 9 -2 8
-2 0 -12 -4 -23 -8z"/>
</g>
</svg>
