<?xml version="1.0" standalone="no"?>
<!DOCTYPE svg PUBLIC "-//W3C//DTD SVG 20010904//EN"
 "http://www.w3.org/TR/2001/REC-SVG-20010904/DTD/svg10.dtd">
<svg version="1.0" xmlns="http://www.w3.org/2000/svg"
 width="365.000000pt" height="176.000000pt" viewBox="0 0 365.000000 176.000000"
 preserveAspectRatio="xMidYMid meet">

<g transform="translate(0.000000,176.000000) scale(0.100000,-0.100000)"
fill="#000000" stroke="none">
<path d="M1005 1315 c-47 -78 -64 -116 -59 -132 4 -13 3 -14 -4 -5 -8 11 -10
11 -15 -1 -3 -7 -1 -20 3 -28 10 -16 -6 -40 -23 -33 -7 2 -24 -18 -39 -44 -22
-38 -25 -51 -15 -61 9 -10 9 -12 -2 -9 -12 3 -72 -69 -68 -82 1 -3 -7 -17 -17
-32 -21 -31 -15 -80 12 -100 9 -7 18 -22 20 -33 5 -34 106 -225 119 -225 6 0
15 -4 18 -10 4 -6 -1 -7 -12 -4 -15 5 -15 4 -3 -4 8 -6 18 -8 23 -5 5 3 39 6
75 5 36 0 60 3 53 7 -7 5 -12 10 -10 12 4 8 -42 89 -50 89 -5 0 -15 17 -21 38
-19 57 -80 163 -91 156 -6 -3 -3 10 5 30 8 20 12 36 8 36 -4 0 -2 4 3 8 20 14
95 154 88 165 -3 5 -2 8 3 5 10 -6 117 175 117 198 0 7 4 11 9 8 4 -3 8 -3 8
-1 0 3 7 21 15 41 l15 36 -76 -2 c-64 -3 -79 -6 -89 -23z"/>
</g>
</svg>
